<svg width="178" height="40" viewBox="0 0 178 40" fill="none" xmlns="http://www.w3.org/2000/svg">
<path d="M56.476 23.764C56.476 24.3653 56.5787 24.8787 56.784 25.304C56.9893 25.7293 57.2753 26.0813 57.642 26.36C58.0087 26.624 58.4267 26.822 58.896 26.954C59.38 27.0713 59.9007 27.13 60.458 27.13C61.0593 27.13 61.5727 27.064 61.998 26.932C62.4233 26.7853 62.768 26.602 63.032 26.382C63.296 26.162 63.4867 25.9127 63.604 25.634C63.7213 25.3407 63.78 25.0473 63.78 24.754C63.78 24.1527 63.6407 23.7127 63.362 23.434C63.098 23.1407 62.8047 22.9353 62.482 22.818C61.9247 22.6127 61.272 22.422 60.524 22.246C59.7907 22.0553 58.8813 21.8133 57.796 21.52C57.1213 21.344 56.5567 21.1167 56.102 20.838C55.662 20.5447 55.31 20.222 55.046 19.87C54.782 19.518 54.5913 19.144 54.474 18.748C54.3713 18.352 54.32 17.9487 54.32 17.538C54.32 16.746 54.4813 16.064 54.804 15.492C55.1413 14.9053 55.5813 14.4213 56.124 14.04C56.6667 13.6587 57.2827 13.38 57.972 13.204C58.6613 13.0133 59.358 12.918 60.062 12.918C60.8833 12.918 61.6533 13.028 62.372 13.248C63.1053 13.4533 63.7433 13.7687 64.286 14.194C64.8433 14.6193 65.2833 15.1473 65.606 15.778C65.9287 16.394 66.09 17.1127 66.09 17.934H63.34C63.2667 16.922 62.922 16.2107 62.306 15.8C61.69 15.3747 60.9053 15.162 59.952 15.162C59.6293 15.162 59.2993 15.1987 58.962 15.272C58.6247 15.3307 58.3167 15.4407 58.038 15.602C57.7593 15.7487 57.5247 15.954 57.334 16.218C57.158 16.482 57.07 16.812 57.07 17.208C57.07 17.7653 57.2387 18.2053 57.576 18.528C57.928 18.836 58.3827 19.0707 58.94 19.232C58.9987 19.2467 59.226 19.3127 59.622 19.43C60.0327 19.5327 60.4873 19.65 60.986 19.782C61.4847 19.914 61.9687 20.046 62.438 20.178C62.922 20.2953 63.2667 20.3833 63.472 20.442C63.9853 20.6033 64.4327 20.8233 64.814 21.102C65.1953 21.3807 65.5107 21.7033 65.76 22.07C66.024 22.422 66.2147 22.8033 66.332 23.214C66.464 23.6247 66.53 24.0353 66.53 24.446C66.53 25.326 66.3467 26.0813 65.98 26.712C65.628 27.328 65.1587 27.834 64.572 28.23C63.9853 28.626 63.318 28.912 62.57 29.088C61.822 29.2787 61.0593 29.374 60.282 29.374C59.3873 29.374 58.544 29.264 57.752 29.044C56.96 28.824 56.2707 28.4867 55.684 28.032C55.0973 27.5773 54.628 26.998 54.276 26.294C53.924 25.5753 53.7407 24.732 53.726 23.764H56.476ZM68.8936 13.292H72.7656L77.0996 25.59H77.1436L81.3676 13.292H85.1956V29H82.5776V16.878H82.5336L78.1776 29H75.9116L71.5556 16.878H71.5116V29H68.8936V13.292ZM90.2924 23.764C90.2924 24.3653 90.3951 24.8787 90.6004 25.304C90.8057 25.7293 91.0917 26.0813 91.4584 26.36C91.8251 26.624 92.2431 26.822 92.7124 26.954C93.1964 27.0713 93.7171 27.13 94.2744 27.13C94.8757 27.13 95.3891 27.064 95.8144 26.932C96.2397 26.7853 96.5844 26.602 96.8484 26.382C97.1124 26.162 97.3031 25.9127 97.4204 25.634C97.5377 25.3407 97.5964 25.0473 97.5964 24.754C97.5964 24.1527 97.4571 23.7127 97.1784 23.434C96.9144 23.1407 96.6211 22.9353 96.2984 22.818C95.7411 22.6127 95.0884 22.422 94.3404 22.246C93.6071 22.0553 92.6977 21.8133 91.6124 21.52C90.9377 21.344 90.3731 21.1167 89.9184 20.838C89.4784 20.5447 89.1264 20.222 88.8624 19.87C88.5984 19.518 88.4077 19.144 88.2904 18.748C88.1877 18.352 88.1364 17.9487 88.1364 17.538C88.1364 16.746 88.2977 16.064 88.6204 15.492C88.9577 14.9053 89.3977 14.4213 89.9404 14.04C90.4831 13.6587 91.0991 13.38 91.7884 13.204C92.4777 13.0133 93.1744 12.918 93.8784 12.918C94.6997 12.918 95.4697 13.028 96.1884 13.248C96.9217 13.4533 97.5597 13.7687 98.1024 14.194C98.6597 14.6193 99.0997 15.1473 99.4224 15.778C99.7451 16.394 99.9064 17.1127 99.9064 17.934H97.1564C97.0831 16.922 96.7384 16.2107 96.1224 15.8C95.5064 15.3747 94.7217 15.162 93.7684 15.162C93.4457 15.162 93.1157 15.1987 92.7784 15.272C92.4411 15.3307 92.1331 15.4407 91.8544 15.602C91.5757 15.7487 91.3411 15.954 91.1504 16.218C90.9744 16.482 90.8864 16.812 90.8864 17.208C90.8864 17.7653 91.0551 18.2053 91.3924 18.528C91.7444 18.836 92.1991 19.0707 92.7564 19.232C92.8151 19.2467 93.0424 19.3127 93.4384 19.43C93.8491 19.5327 94.3037 19.65 94.8024 19.782C95.3011 19.914 95.7851 20.046 96.2544 20.178C96.7384 20.2953 97.0831 20.3833 97.2884 20.442C97.8017 20.6033 98.2491 20.8233 98.6304 21.102C99.0117 21.3807 99.3271 21.7033 99.5764 22.07C99.8404 22.422 100.031 22.8033 100.148 23.214C100.28 23.6247 100.346 24.0353 100.346 24.446C100.346 25.326 100.163 26.0813 99.7964 26.712C99.4444 27.328 98.9751 27.834 98.3884 28.23C97.8017 28.626 97.1344 28.912 96.3864 29.088C95.6384 29.2787 94.8757 29.374 94.0984 29.374C93.2037 29.374 92.3604 29.264 91.5684 29.044C90.7764 28.824 90.0871 28.4867 89.5004 28.032C88.9137 27.5773 88.4444 26.998 88.0924 26.294C87.7404 25.5753 87.5571 24.732 87.5424 23.764H90.2924Z" fill="black"/>
<path opacity="0.3" d="M31.5 39C37.8944 39 43.0781 38.1815 43.0781 37.1719C43.0781 36.1622 37.8944 35.3438 31.5 35.3438C25.1056 35.3438 19.9219 36.1622 19.9219 37.1719C19.9219 38.1815 25.1056 39 31.5 39Z" fill="black"/>
<path d="M40.0453 33.5156H22.3734C20.6909 33.5156 19.3265 32.1512 19.3265 30.4688V7.3125C19.3265 5.63002 20.6909 4.26562 22.3734 4.26562H40.0453C41.7277 4.26562 43.0921 5.63002 43.0921 7.3125V30.4688C43.0921 32.1512 41.7284 33.5156 40.0453 33.5156Z" fill="#37D0EE"/>
<path d="M22.3691 33.5156H24.8066V4.26562H22.3691C20.6866 4.26562 19.3223 5.63002 19.3223 7.3125V30.4688C19.3223 32.1512 20.6866 33.5156 22.3691 33.5156Z" fill="#008AA9"/>
<path opacity="0.3" d="M19.3265 7.2802V17.6719C21.0096 17.6719 22.3734 16.3081 22.3734 14.625V7.60195C22.3734 7.41122 22.4898 7.23206 22.6726 7.17539C23.9114 6.78844 24.8109 5.63306 24.8109 4.26624H22.3411C20.6763 4.26563 19.3265 5.61539 19.3265 7.2802Z" fill="white"/>
<path opacity="0.15" d="M43.0921 30.5145V19.5C41.409 19.5 40.0453 20.8638 40.0453 22.5469V29.8594C40.0453 30.1957 39.7723 30.4688 39.4359 30.4688H33.9515C32.2684 30.4688 30.9046 31.8325 30.9046 33.5156H40.091C41.7485 33.5156 43.0921 32.172 43.0921 30.5145Z" fill="black"/>
<path d="M21.4593 7.61719V11.8828" stroke="white" stroke-width="4.6875" stroke-miterlimit="10" stroke-linecap="round" stroke-linejoin="round"/>
<path d="M33.8997 16.8157L31.5 14.0156L29.1003 16.8157C28.6688 17.319 27.8438 17.0137 27.8438 16.3507V4.26562H35.1562V16.3507C35.1562 17.0137 34.3312 17.319 33.8997 16.8157Z" fill="#FD3C4F"/>
</svg>
